<svg width="38" height="38" viewBox="0 0 38 38" fill="none" xmlns="http://www.w3.org/2000/svg">
<mask id="path-1-outside-1_597_9" maskUnits="userSpaceOnUse" x="0" y="0" width="38" height="38" fill="black">
<rect fill="white" width="38" height="38"/>
<path d="M35 19C35 27.8366 27.8366 35 19 35C10.1634 35 3 27.8366 3 19C3 10.1634 10.1634 3 19 3C27.8366 3 35 10.1634 35 19Z"/>
<path d="M8.94108 22.8053C8.61231 22.8053 8.3212 22.7505 8.06777 22.6409C7.81434 22.5245 7.63283 22.3772 7.52324 22.1991V21.6546C7.65338 21.9491 7.83146 22.1683 8.0575 22.3122C8.28353 22.4492 8.57121 22.5176 8.92054 22.5176C9.25616 22.5176 9.52672 22.4149 9.7322 22.2094C9.93769 21.9971 10.0404 21.7265 10.0404 21.3978C10.0404 21.1169 9.98221 20.9012 9.86577 20.7505C9.74932 20.5929 9.56096 20.4354 9.30068 20.2779L8.91026 20.0518C8.62943 19.8806 8.4171 19.747 8.27326 19.6511C8.13627 19.5484 8.02668 19.4354 7.94448 19.3121C7.86229 19.1819 7.82119 19.0313 7.82119 18.86C7.82119 18.586 7.91708 18.3668 8.10887 18.2025C8.30066 18.0381 8.55066 17.9559 8.85889 17.9559C9.23561 17.9559 9.55069 18.0415 9.80412 18.2127V18.6648C9.59179 18.384 9.28698 18.2436 8.88971 18.2436C8.67053 18.2436 8.49244 18.2984 8.35545 18.4079C8.21846 18.5175 8.14997 18.658 8.14997 18.8292C8.14997 18.9799 8.19106 19.1134 8.27326 19.2299C8.35545 19.3395 8.46847 19.4422 8.61231 19.5381C8.763 19.634 9.00958 19.7778 9.35205 19.9696C9.70138 20.1683 9.95823 20.3738 10.1226 20.5861C10.287 20.7916 10.3692 21.0621 10.3692 21.3978C10.3692 21.8224 10.2288 22.1649 9.94796 22.4252C9.67398 22.6786 9.33835 22.8053 8.94108 22.8053Z"/>
<path d="M11.7938 17.0106C11.6979 17.0106 11.6123 16.9764 11.5369 16.9079C11.4684 16.8394 11.4342 16.7538 11.4342 16.6511C11.4342 16.5552 11.4684 16.473 11.5369 16.4045C11.6123 16.336 11.6979 16.3017 11.7938 16.3017C11.8897 16.3017 11.9719 16.336 12.0404 16.4045C12.1157 16.473 12.1534 16.5552 12.1534 16.6511C12.1534 16.7538 12.1157 16.8394 12.0404 16.9079C11.9719 16.9764 11.8897 17.0106 11.7938 17.0106ZM11.6294 18.0689H11.9582V22.6923H11.6294V18.0689Z"/>
<path d="M15.247 22.7848C14.9251 22.7848 14.6305 22.7129 14.3634 22.569C14.0963 22.4183 13.8839 22.2094 13.7264 21.9423C13.5689 21.6752 13.4901 21.3772 13.4901 21.0484V14.9866H13.8189V21.0484C13.8189 21.3224 13.8805 21.569 14.0038 21.7882C14.1339 22.0074 14.3086 22.182 14.5278 22.3122C14.747 22.4355 14.9867 22.4971 15.247 22.4971V22.7848Z"/>
<path d="M18.0664 16.425C17.8061 16.425 17.5664 16.4901 17.3472 16.6202C17.128 16.7435 16.9533 16.9182 16.8232 17.1442C16.6999 17.3634 16.6383 17.6066 16.6383 17.8737V18.0689H18.0664V18.3566H16.6383V22.6923H16.3095V17.8737C16.3095 17.5518 16.3848 17.2607 16.5355 17.0004C16.6931 16.7332 16.9054 16.5243 17.1725 16.3736C17.4465 16.2161 17.7445 16.1373 18.0664 16.1373V16.425Z"/>
<path d="M22.8938 18.0689L20.6232 22.8259L18.3423 18.0689H18.7019L20.6232 22.0759L22.5342 18.0689H22.8938Z"/>
<path d="M25.6432 22.5279C25.9993 22.5279 26.3384 22.4355 26.6603 22.2505C26.9822 22.0656 27.2494 21.8121 27.4617 21.4902V22.0142C27.2083 22.295 26.9309 22.5005 26.6295 22.6307C26.3281 22.754 25.9856 22.8156 25.6021 22.8156C25.1774 22.8156 24.7767 22.7026 24.4 22.4765C24.0301 22.2505 23.7321 21.9491 23.5061 21.5724C23.2869 21.1957 23.1773 20.795 23.1773 20.3703C23.1773 19.9114 23.2869 19.5004 23.5061 19.1374C23.7253 18.7675 24.0232 18.4799 24.4 18.2744C24.7835 18.0689 25.2082 17.9662 25.674 17.9662C26.3863 17.9662 26.9925 18.247 27.4925 18.8086L24.2664 21.9937C24.4924 22.1786 24.7116 22.3156 24.924 22.4046C25.1363 22.4868 25.376 22.5279 25.6432 22.5279ZM23.5061 20.3395C23.5061 20.908 23.6945 21.3943 24.0712 21.7984L27.0816 18.8086C26.8555 18.61 26.6363 18.4696 26.424 18.3874C26.2117 18.2984 25.9582 18.2538 25.6637 18.2538C25.2459 18.2538 24.8726 18.3463 24.5438 18.5312C24.2219 18.7093 23.9685 18.9559 23.7835 19.271C23.5986 19.5861 23.5061 19.9422 23.5061 20.3395Z"/>
<path d="M28.5202 18.0689H28.849V19.1374C28.986 18.8018 29.1846 18.5381 29.4449 18.3463C29.712 18.1545 30.0134 18.0586 30.349 18.0586C30.5613 18.0586 30.7771 18.1031 30.9963 18.1922V18.5723C30.7976 18.4216 30.575 18.3463 30.3285 18.3463C30.0819 18.3463 29.8421 18.4216 29.6093 18.5723C29.3832 18.723 29.1983 18.9251 29.0544 19.1785C28.9175 19.4319 28.849 19.7025 28.849 19.9902V22.6923H28.5202V18.0689Z"/>
</mask>
<path d="M35 19C35 27.8366 27.8366 35 19 35C10.1634 35 3 27.8366 3 19C3 10.1634 10.1634 3 19 3C27.8366 3 35 10.1634 35 19Z" fill="url(#paint0_linear_597_9)"/>
<path d="M8.94108 22.8053C8.61231 22.8053 8.3212 22.7505 8.06777 22.6409C7.81434 22.5245 7.63283 22.3772 7.52324 22.1991V21.6546C7.65338 21.9491 7.83146 22.1683 8.0575 22.3122C8.28353 22.4492 8.57121 22.5176 8.92054 22.5176C9.25616 22.5176 9.52672 22.4149 9.7322 22.2094C9.93769 21.9971 10.0404 21.7265 10.0404 21.3978C10.0404 21.1169 9.98221 20.9012 9.86577 20.7505C9.74932 20.5929 9.56096 20.4354 9.30068 20.2779L8.91026 20.0518C8.62943 19.8806 8.4171 19.747 8.27326 19.6511C8.13627 19.5484 8.02668 19.4354 7.94448 19.3121C7.86229 19.1819 7.82119 19.0313 7.82119 18.86C7.82119 18.586 7.91708 18.3668 8.10887 18.2025C8.30066 18.0381 8.55066 17.9559 8.85889 17.9559C9.23561 17.9559 9.55069 18.0415 9.80412 18.2127V18.6648C9.59179 18.384 9.28698 18.2436 8.88971 18.2436C8.67053 18.2436 8.49244 18.2984 8.35545 18.4079C8.21846 18.5175 8.14997 18.658 8.14997 18.8292C8.14997 18.9799 8.19106 19.1134 8.27326 19.2299C8.35545 19.3395 8.46847 19.4422 8.61231 19.5381C8.763 19.634 9.00958 19.7778 9.35205 19.9696C9.70138 20.1683 9.95823 20.3738 10.1226 20.5861C10.287 20.7916 10.3692 21.0621 10.3692 21.3978C10.3692 21.8224 10.2288 22.1649 9.94796 22.4252C9.67398 22.6786 9.33835 22.8053 8.94108 22.8053Z" fill="white"/>
<path d="M11.7938 17.0106C11.6979 17.0106 11.6123 16.9764 11.5369 16.9079C11.4684 16.8394 11.4342 16.7538 11.4342 16.6511C11.4342 16.5552 11.4684 16.473 11.5369 16.4045C11.6123 16.336 11.6979 16.3017 11.7938 16.3017C11.8897 16.3017 11.9719 16.336 12.0404 16.4045C12.1157 16.473 12.1534 16.5552 12.1534 16.6511C12.1534 16.7538 12.1157 16.8394 12.0404 16.9079C11.9719 16.9764 11.8897 17.0106 11.7938 17.0106ZM11.6294 18.0689H11.9582V22.6923H11.6294V18.0689Z" fill="white"/>
<path d="M15.247 22.7848C14.9251 22.7848 14.6305 22.7129 14.3634 22.569C14.0963 22.4183 13.8839 22.2094 13.7264 21.9423C13.5689 21.6752 13.4901 21.3772 13.4901 21.0484V14.9866H13.8189V21.0484C13.8189 21.3224 13.8805 21.569 14.0038 21.7882C14.1339 22.0074 14.3086 22.182 14.5278 22.3122C14.747 22.4355 14.9867 22.4971 15.247 22.4971V22.7848Z" fill="white"/>
<path d="M18.0664 16.425C17.8061 16.425 17.5664 16.4901 17.3472 16.6202C17.128 16.7435 16.9533 16.9182 16.8232 17.1442C16.6999 17.3634 16.6383 17.6066 16.6383 17.8737V18.0689H18.0664V18.3566H16.6383V22.6923H16.3095V17.8737C16.3095 17.5518 16.3848 17.2607 16.5355 17.0004C16.6931 16.7332 16.9054 16.5243 17.1725 16.3736C17.4465 16.2161 17.7445 16.1373 18.0664 16.1373V16.425Z" fill="white"/>
<path d="M22.8938 18.0689L20.6232 22.8259L18.3423 18.0689H18.7019L20.6232 22.0759L22.5342 18.0689H22.8938Z" fill="white"/>
<path d="M25.6432 22.5279C25.9993 22.5279 26.3384 22.4355 26.6603 22.2505C26.9822 22.0656 27.2494 21.8121 27.4617 21.4902V22.0142C27.2083 22.295 26.9309 22.5005 26.6295 22.6307C26.3281 22.754 25.9856 22.8156 25.6021 22.8156C25.1774 22.8156 24.7767 22.7026 24.4 22.4765C24.0301 22.2505 23.7321 21.9491 23.5061 21.5724C23.2869 21.1957 23.1773 20.795 23.1773 20.3703C23.1773 19.9114 23.2869 19.5004 23.5061 19.1374C23.7253 18.7675 24.0232 18.4799 24.4 18.2744C24.7835 18.0689 25.2082 17.9662 25.674 17.9662C26.3863 17.9662 26.9925 18.247 27.4925 18.8086L24.2664 21.9937C24.4924 22.1786 24.7116 22.3156 24.924 22.4046C25.1363 22.4868 25.376 22.5279 25.6432 22.5279ZM23.5061 20.3395C23.5061 20.908 23.6945 21.3943 24.0712 21.7984L27.0816 18.8086C26.8555 18.61 26.6363 18.4696 26.424 18.3874C26.2117 18.2984 25.9582 18.2538 25.6637 18.2538C25.2459 18.2538 24.8726 18.3463 24.5438 18.5312C24.2219 18.7093 23.9685 18.9559 23.7835 19.271C23.5986 19.5861 23.5061 19.9422 23.5061 20.3395Z" fill="white"/>
<path d="M28.5202 18.0689H28.849V19.1374C28.986 18.8018 29.1846 18.5381 29.4449 18.3463C29.712 18.1545 30.0134 18.0586 30.349 18.0586C30.5613 18.0586 30.7771 18.1031 30.9963 18.1922V18.5723C30.7976 18.4216 30.575 18.3463 30.3285 18.3463C30.0819 18.3463 29.8421 18.4216 29.6093 18.5723C29.3832 18.723 29.1983 18.9251 29.0544 19.1785C28.9175 19.4319 28.849 19.7025 28.849 19.9902V22.6923H28.5202V18.0689Z" fill="white"/>
<path d="M35 19C35 27.8366 27.8366 35 19 35C10.1634 35 3 27.8366 3 19C3 10.1634 10.1634 3 19 3C27.8366 3 35 10.1634 35 19Z" stroke="white" stroke-width="6" mask="url(#path-1-outside-1_597_9)"/>
<path d="M8.94108 22.8053C8.61231 22.8053 8.3212 22.7505 8.06777 22.6409C7.81434 22.5245 7.63283 22.3772 7.52324 22.1991V21.6546C7.65338 21.9491 7.83146 22.1683 8.0575 22.3122C8.28353 22.4492 8.57121 22.5176 8.92054 22.5176C9.25616 22.5176 9.52672 22.4149 9.7322 22.2094C9.93769 21.9971 10.0404 21.7265 10.0404 21.3978C10.0404 21.1169 9.98221 20.9012 9.86577 20.7505C9.74932 20.5929 9.56096 20.4354 9.30068 20.2779L8.91026 20.0518C8.62943 19.8806 8.4171 19.747 8.27326 19.6511C8.13627 19.5484 8.02668 19.4354 7.94448 19.3121C7.86229 19.1819 7.82119 19.0313 7.82119 18.86C7.82119 18.586 7.91708 18.3668 8.10887 18.2025C8.30066 18.0381 8.55066 17.9559 8.85889 17.9559C9.23561 17.9559 9.55069 18.0415 9.80412 18.2127V18.6648C9.59179 18.384 9.28698 18.2436 8.88971 18.2436C8.67053 18.2436 8.49244 18.2984 8.35545 18.4079C8.21846 18.5175 8.14997 18.658 8.14997 18.8292C8.14997 18.9799 8.19106 19.1134 8.27326 19.2299C8.35545 19.3395 8.46847 19.4422 8.61231 19.5381C8.763 19.634 9.00958 19.7778 9.35205 19.9696C9.70138 20.1683 9.95823 20.3738 10.1226 20.5861C10.287 20.7916 10.3692 21.0621 10.3692 21.3978C10.3692 21.8224 10.2288 22.1649 9.94796 22.4252C9.67398 22.6786 9.33835 22.8053 8.94108 22.8053Z" stroke="white" stroke-width="6" mask="url(#path-1-outside-1_597_9)"/>
<path d="M11.7938 17.0106C11.6979 17.0106 11.6123 16.9764 11.5369 16.9079C11.4684 16.8394 11.4342 16.7538 11.4342 16.6511C11.4342 16.5552 11.4684 16.473 11.5369 16.4045C11.6123 16.336 11.6979 16.3017 11.7938 16.3017C11.8897 16.3017 11.9719 16.336 12.0404 16.4045C12.1157 16.473 12.1534 16.5552 12.1534 16.6511C12.1534 16.7538 12.1157 16.8394 12.0404 16.9079C11.9719 16.9764 11.8897 17.0106 11.7938 17.0106ZM11.6294 18.0689H11.9582V22.6923H11.6294V18.0689Z" stroke="white" stroke-width="6" mask="url(#path-1-outside-1_597_9)"/>
<path d="M15.247 22.7848C14.9251 22.7848 14.6305 22.7129 14.3634 22.569C14.0963 22.4183 13.8839 22.2094 13.7264 21.9423C13.5689 21.6752 13.4901 21.3772 13.4901 21.0484V14.9866H13.8189V21.0484C13.8189 21.3224 13.8805 21.569 14.0038 21.7882C14.1339 22.0074 14.3086 22.182 14.5278 22.3122C14.747 22.4355 14.9867 22.4971 15.247 22.4971V22.7848Z" stroke="white" stroke-width="6" mask="url(#path-1-outside-1_597_9)"/>
<path d="M18.0664 16.425C17.8061 16.425 17.5664 16.4901 17.3472 16.6202C17.128 16.7435 16.9533 16.9182 16.8232 17.1442C16.6999 17.3634 16.6383 17.6066 16.6383 17.8737V18.0689H18.0664V18.3566H16.6383V22.6923H16.3095V17.8737C16.3095 17.5518 16.3848 17.2607 16.5355 17.0004C16.6931 16.7332 16.9054 16.5243 17.1725 16.3736C17.4465 16.2161 17.7445 16.1373 18.0664 16.1373V16.425Z" stroke="white" stroke-width="6" mask="url(#path-1-outside-1_597_9)"/>
<path d="M22.8938 18.0689L20.6232 22.8259L18.3423 18.0689H18.7019L20.6232 22.0759L22.5342 18.0689H22.8938Z" stroke="white" stroke-width="6" mask="url(#path-1-outside-1_597_9)"/>
<path d="M25.6432 22.5279C25.9993 22.5279 26.3384 22.4355 26.6603 22.2505C26.9822 22.0656 27.2494 21.8121 27.4617 21.4902V22.0142C27.2083 22.295 26.9309 22.5005 26.6295 22.6307C26.3281 22.754 25.9856 22.8156 25.6021 22.8156C25.1774 22.8156 24.7767 22.7026 24.4 22.4765C24.0301 22.2505 23.7321 21.9491 23.5061 21.5724C23.2869 21.1957 23.1773 20.795 23.1773 20.3703C23.1773 19.9114 23.2869 19.5004 23.5061 19.1374C23.7253 18.7675 24.0232 18.4799 24.4 18.2744C24.7835 18.0689 25.2082 17.9662 25.674 17.9662C26.3863 17.9662 26.9925 18.247 27.4925 18.8086L24.2664 21.9937C24.4924 22.1786 24.7116 22.3156 24.924 22.4046C25.1363 22.4868 25.376 22.5279 25.6432 22.5279ZM23.5061 20.3395C23.5061 20.908 23.6945 21.3943 24.0712 21.7984L27.0816 18.8086C26.8555 18.61 26.6363 18.4696 26.424 18.3874C26.2117 18.2984 25.9582 18.2538 25.6637 18.2538C25.2459 18.2538 24.8726 18.3463 24.5438 18.5312C24.2219 18.7093 23.9685 18.9559 23.7835 19.271C23.5986 19.5861 23.5061 19.9422 23.5061 20.3395Z" stroke="white" stroke-width="6" mask="url(#path-1-outside-1_597_9)"/>
<path d="M28.5202 18.0689H28.849V19.1374C28.986 18.8018 29.1846 18.5381 29.4449 18.3463C29.712 18.1545 30.0134 18.0586 30.349 18.0586C30.5613 18.0586 30.7771 18.1031 30.9963 18.1922V18.5723C30.7976 18.4216 30.575 18.3463 30.3285 18.3463C30.0819 18.3463 29.8421 18.4216 29.6093 18.5723C29.3832 18.723 29.1983 18.9251 29.0544 19.1785C28.9175 19.4319 28.849 19.7025 28.849 19.9902V22.6923H28.5202V18.0689Z" stroke="white" stroke-width="6" mask="url(#path-1-outside-1_597_9)"/>
<defs>
<linearGradient id="paint0_linear_597_9" x1="19" y1="3" x2="19" y2="35" gradientUnits="userSpaceOnUse">
<stop stop-color="#7A0045"/>
<stop offset="1" stop-color="#02002E"/>
</linearGradient>
</defs>
</svg>
