<svg width="32" height="32" viewBox="0 0 32 32" fill="none" xmlns="http://www.w3.org/2000/svg">
<circle cx="16" cy="16" r="14" fill="white" stroke="url(#paint0_linear_526_16)" stroke-width="4"/>
<path d="M15.3865 23.9467C13.7198 23.9467 12.4265 23.26 11.5065 21.8867V20.8067C11.8665 21.6067 12.3865 22.2334 13.0665 22.6867C13.7598 23.14 14.5865 23.3667 15.5465 23.3667C16.2132 23.3667 16.8265 23.22 17.3865 22.9267C17.9598 22.6334 18.4132 22.22 18.7465 21.6867C19.0798 21.1534 19.2465 20.54 19.2465 19.8467C19.2465 19.22 19.1398 18.68 18.9265 18.2267C18.7132 17.7734 18.3598 17.34 17.8665 16.9267C17.3732 16.5 16.6598 16 15.7265 15.4267L15.0865 15.0267C14.4998 14.6667 14.0265 14.3467 13.6665 14.0667C13.3065 13.7867 12.9932 13.46 12.7265 13.0867C12.3798 12.5667 12.2065 11.9667 12.2065 11.2867C12.2065 10.38 12.4998 9.67335 13.0865 9.16669C13.6732 8.66002 14.4198 8.40669 15.3265 8.40669C16.5532 8.40669 17.5265 8.86002 18.2465 9.76669V10.7867C17.9398 10.2267 17.5198 9.78669 16.9865 9.46669C16.4532 9.14669 15.8665 8.98669 15.2265 8.98669C14.5598 8.98669 13.9998 9.19335 13.5465 9.60669C13.0932 10.02 12.8665 10.5734 12.8665 11.2667C12.8665 11.9467 13.0732 12.5334 13.4865 13.0267C13.9132 13.5067 14.6265 14.0334 15.6265 14.6067C16.8532 15.3267 17.8065 15.98 18.4865 16.5667C18.9665 17.0067 19.3132 17.4934 19.5265 18.0267C19.7532 18.56 19.8665 19.1534 19.8665 19.8067C19.8665 20.6334 19.6732 21.36 19.2865 21.9867C18.8998 22.6134 18.3665 23.1 17.6865 23.4467C17.0065 23.78 16.2398 23.9467 15.3865 23.9467Z" fill="url(#paint1_linear_526_16)"/>
<defs>
<linearGradient id="paint0_linear_526_16" x1="16" y1="0" x2="16" y2="32" gradientUnits="userSpaceOnUse">
<stop stop-color="#7A0045"/>
<stop offset="1" stop-color="#16007A"/>
</linearGradient>
<linearGradient id="paint1_linear_526_16" x1="15.6665" y1="4.66669" x2="15.6665" y2="26.6667" gradientUnits="userSpaceOnUse">
<stop stop-color="#7A0045"/>
<stop offset="1" stop-color="#16007A"/>
</linearGradient>
</defs>
</svg>
