<svg width="90" height="90" viewBox="0 0 90 90" fill="none" xmlns="http://www.w3.org/2000/svg">
<circle cx="45" cy="45" r="42.5" fill="white" stroke="url(#paint0_linear_975_126)" stroke-width="5"/>
<path d="M17.16 57.33C16.2 57.33 15.35 57.17 14.61 56.85C13.87 56.51 13.34 56.08 13.02 55.56V53.97C13.4 54.83 13.92 55.47 14.58 55.89C15.24 56.29 16.08 56.49 17.1 56.49C18.08 56.49 18.87 56.19 19.47 55.59C20.07 54.97 20.37 54.18 20.37 53.22C20.37 52.4 20.2 51.77 19.86 51.33C19.52 50.87 18.97 50.41 18.21 49.95L17.07 49.29C16.25 48.79 15.63 48.4 15.21 48.12C14.81 47.82 14.49 47.49 14.25 47.13C14.01 46.75 13.89 46.31 13.89 45.81C13.89 45.01 14.17 44.37 14.73 43.89C15.29 43.41 16.02 43.17 16.92 43.17C18.02 43.17 18.94 43.42 19.68 43.92V45.24C19.06 44.42 18.17 44.01 17.01 44.01C16.37 44.01 15.85 44.17 15.45 44.49C15.05 44.81 14.85 45.22 14.85 45.72C14.85 46.16 14.97 46.55 15.21 46.89C15.45 47.21 15.78 47.51 16.2 47.79C16.64 48.07 17.36 48.49 18.36 49.05C19.38 49.63 20.13 50.23 20.61 50.85C21.09 51.45 21.33 52.24 21.33 53.22C21.33 54.46 20.92 55.46 20.1 56.22C19.3 56.96 18.32 57.33 17.16 57.33ZM25.4897 40.41C25.2097 40.41 24.9597 40.31 24.7397 40.11C24.5397 39.91 24.4397 39.66 24.4397 39.36C24.4397 39.08 24.5397 38.84 24.7397 38.64C24.9597 38.44 25.2097 38.34 25.4897 38.34C25.7697 38.34 26.0097 38.44 26.2097 38.64C26.4297 38.84 26.5397 39.08 26.5397 39.36C26.5397 39.66 26.4297 39.91 26.2097 40.11C26.0097 40.31 25.7697 40.41 25.4897 40.41ZM25.0097 43.5H25.9697V57H25.0097V43.5ZM35.5727 57.27C34.6327 57.27 33.7727 57.06 32.9927 56.64C32.2127 56.2 31.5927 55.59 31.1327 54.81C30.6727 54.03 30.4427 53.16 30.4427 52.2V34.5H31.4027V52.2C31.4027 53 31.5827 53.72 31.9427 54.36C32.3227 55 32.8327 55.51 33.4727 55.89C34.1127 56.25 34.8127 56.43 35.5727 56.43V57.27ZM43.8052 38.7C43.0452 38.7 42.3452 38.89 41.7052 39.27C41.0652 39.63 40.5552 40.14 40.1752 40.8C39.8152 41.44 39.6352 42.15 39.6352 42.93V43.5H43.8052V44.34H39.6352V57H38.6752V42.93C38.6752 41.99 38.8952 41.14 39.3352 40.38C39.7952 39.6 40.4152 38.99 41.1952 38.55C41.9952 38.09 42.8652 37.86 43.8052 37.86V38.7ZM57.9009 43.5L51.2709 57.39L44.6109 43.5H45.6609L51.2709 55.2L56.8509 43.5H57.9009ZM65.9288 56.52C66.9688 56.52 67.9588 56.25 68.8988 55.71C69.8388 55.17 70.6188 54.43 71.2388 53.49V55.02C70.4988 55.84 69.6888 56.44 68.8088 56.82C67.9288 57.18 66.9288 57.36 65.8088 57.36C64.5688 57.36 63.3988 57.03 62.2988 56.37C61.2188 55.71 60.3488 54.83 59.6888 53.73C59.0488 52.63 58.7288 51.46 58.7288 50.22C58.7288 48.88 59.0488 47.68 59.6888 46.62C60.3288 45.54 61.1988 44.7 62.2988 44.1C63.4188 43.5 64.6588 43.2 66.0188 43.2C68.0988 43.2 69.8688 44.02 71.3288 45.66L61.9088 54.96C62.5688 55.5 63.2088 55.9 63.8288 56.16C64.4488 56.4 65.1488 56.52 65.9288 56.52ZM59.6888 50.13C59.6888 51.79 60.2388 53.21 61.3388 54.39L70.1288 45.66C69.4688 45.08 68.8288 44.67 68.2088 44.43C67.5888 44.17 66.8488 44.04 65.9888 44.04C64.7688 44.04 63.6788 44.31 62.7188 44.85C61.7788 45.37 61.0388 46.09 60.4988 47.01C59.9588 47.93 59.6888 48.97 59.6888 50.13ZM74.3295 43.5H75.2895V46.62C75.6895 45.64 76.2695 44.87 77.0295 44.31C77.8095 43.75 78.6895 43.47 79.6695 43.47C80.2895 43.47 80.9195 43.6 81.5595 43.86V44.97C80.9795 44.53 80.3295 44.31 79.6095 44.31C78.8895 44.31 78.1895 44.53 77.5095 44.97C76.8495 45.41 76.3095 46 75.8895 46.74C75.4895 47.48 75.2895 48.27 75.2895 49.11V57H74.3295V43.5Z" fill="url(#paint1_linear_975_126)"/>
<defs>
<linearGradient id="paint0_linear_975_126" x1="45" y1="0" x2="45" y2="90" gradientUnits="userSpaceOnUse">
<stop stop-color="#161C1E"/>
<stop offset="1" stop-color="#2A363B"/>
</linearGradient>
<linearGradient id="paint1_linear_975_126" x1="47.5" y1="28" x2="47.5" y2="63" gradientUnits="userSpaceOnUse">
<stop stop-color="#161C1E"/>
<stop offset="1" stop-color="#2A363B"/>
</linearGradient>
</defs>
</svg>
