<svg width="127" height="127" viewBox="0 0 127 127" fill="none" xmlns="http://www.w3.org/2000/svg">
<circle cx="63.5" cy="63.5" r="61.5" fill="white" stroke="#2A363B" stroke-width="4"/>
<path d="M23.4452 78.5171C22.1652 78.5171 21.0319 78.3038 20.0452 77.8771C19.0585 77.4238 18.3519 76.8505 17.9252 76.1571V74.0371C18.4319 75.1838 19.1252 76.0371 20.0052 76.5971C20.8852 77.1305 22.0052 77.3971 23.3652 77.3971C24.6719 77.3971 25.7252 76.9971 26.5252 76.1971C27.3252 75.3705 27.7252 74.3171 27.7252 73.0371C27.7252 71.9438 27.4985 71.1038 27.0452 70.5171C26.5919 69.9038 25.8585 69.2905 24.8452 68.6771L23.3252 67.7971C22.2319 67.1305 21.4052 66.6105 20.8452 66.2371C20.3119 65.8371 19.8852 65.3971 19.5652 64.9171C19.2452 64.4105 19.0852 63.8238 19.0852 63.1571C19.0852 62.0905 19.4585 61.2371 20.2052 60.5971C20.9519 59.9571 21.9252 59.6371 23.1252 59.6371C24.5919 59.6371 25.8185 59.9705 26.8052 60.6371V62.3971C25.9785 61.3038 24.7919 60.7571 23.2452 60.7571C22.3919 60.7571 21.6985 60.9705 21.1652 61.3971C20.6319 61.8238 20.3652 62.3705 20.3652 63.0371C20.3652 63.6238 20.5252 64.1438 20.8452 64.5971C21.1652 65.0238 21.6052 65.4238 22.1652 65.7971C22.7519 66.1705 23.7119 66.7305 25.0452 67.4771C26.4052 68.2505 27.4052 69.0505 28.0452 69.8771C28.6852 70.6771 29.0052 71.7305 29.0052 73.0371C29.0052 74.6905 28.4585 76.0238 27.3652 77.0371C26.2985 78.0238 24.9919 78.5171 23.4452 78.5171ZM34.5514 55.9571C34.1781 55.9571 33.8448 55.8238 33.5514 55.5571C33.2848 55.2905 33.1514 54.9571 33.1514 54.5571C33.1514 54.1838 33.2848 53.8638 33.5514 53.5971C33.8448 53.3305 34.1781 53.1971 34.5514 53.1971C34.9248 53.1971 35.2448 53.3305 35.5114 53.5971C35.8048 53.8638 35.9514 54.1838 35.9514 54.5571C35.9514 54.9571 35.8048 55.2905 35.5114 55.5571C35.2448 55.8238 34.9248 55.9571 34.5514 55.9571ZM33.9114 60.0771H35.1914V78.0771H33.9114V60.0771ZM47.9955 78.4371C46.7422 78.4371 45.5955 78.1571 44.5555 77.5971C43.5155 77.0105 42.6888 76.1971 42.0755 75.1571C41.4622 74.1171 41.1555 72.9571 41.1555 71.6771V48.0771H42.4355V71.6771C42.4355 72.7438 42.6755 73.7038 43.1555 74.5571C43.6622 75.4105 44.3422 76.0905 45.1955 76.5971C46.0488 77.0771 46.9822 77.3171 47.9955 77.3171V78.4371ZM58.9721 53.6771C57.9587 53.6771 57.0254 53.9305 56.1721 54.4371C55.3187 54.9171 54.6387 55.5971 54.1321 56.4771C53.6521 57.3305 53.4121 58.2771 53.4121 59.3171V60.0771H58.9721V61.1971H53.4121V78.0771H52.1321V59.3171C52.1321 58.0638 52.4254 56.9305 53.0121 55.9171C53.6254 54.8771 54.4521 54.0638 55.4921 53.4771C56.5587 52.8638 57.7187 52.5571 58.9721 52.5571V53.6771ZM77.7664 60.0771L68.9264 78.5971L60.0464 60.0771H61.4464L68.9264 75.6771L76.3664 60.0771H77.7664ZM88.4702 77.4371C89.8569 77.4371 91.1769 77.0771 92.4302 76.3571C93.6835 75.6371 94.7235 74.6505 95.5502 73.3971V75.4371C94.5635 76.5305 93.4835 77.3305 92.3102 77.8371C91.1369 78.3171 89.8035 78.5571 88.3102 78.5571C86.6569 78.5571 85.0969 78.1171 83.6302 77.2371C82.1902 76.3571 81.0302 75.1838 80.1502 73.7171C79.2969 72.2505 78.8702 70.6905 78.8702 69.0371C78.8702 67.2505 79.2969 65.6505 80.1502 64.2371C81.0035 62.7971 82.1635 61.6771 83.6302 60.8771C85.1235 60.0771 86.7769 59.6771 88.5902 59.6771C91.3635 59.6771 93.7235 60.7705 95.6702 62.9571L83.1102 75.3571C83.9902 76.0771 84.8435 76.6105 85.6702 76.9571C86.4969 77.2771 87.4302 77.4371 88.4702 77.4371ZM80.1502 68.9171C80.1502 71.1305 80.8835 73.0238 82.3502 74.5971L94.0702 62.9571C93.1902 62.1838 92.3369 61.6371 91.5102 61.3171C90.6835 60.9705 89.6969 60.7971 88.5502 60.7971C86.9235 60.7971 85.4702 61.1571 84.1902 61.8771C82.9369 62.5705 81.9502 63.5305 81.2302 64.7571C80.5102 65.9838 80.1502 67.3705 80.1502 68.9171ZM99.6711 60.0771H100.951V64.2371C101.484 62.9305 102.258 61.9038 103.271 61.1571C104.311 60.4105 105.484 60.0371 106.791 60.0371C107.618 60.0371 108.458 60.2105 109.311 60.5571V62.0371C108.538 61.4505 107.671 61.1571 106.711 61.1571C105.751 61.1571 104.818 61.4505 103.911 62.0371C103.031 62.6238 102.311 63.4105 101.751 64.3971C101.218 65.3838 100.951 66.4371 100.951 67.5571V78.0771H99.6711V60.0771Z" fill="#2A363B"/>
</svg>
